# OBJ generated by ONSHAPE BY PTC INC, 1.196 Units = meters
mtllib Part Studio 1.mtl
g Part 2
v -0.056946 0.035 0.002 
v -0.056946 0.035 0 
v -0.0551599 0.035 0 
v -0.0551599 0.035 0.002 
v -0.0551599 0.0415693 0 
v -0.0551599 0.0415693 0.002 
v -0.048789 0.0415693 0 
v -0.048789 0.0415693 0.002 
v -0.048789 0.043157 0 
v -0.048789 0.043157 0.002 
v -0.0551599 0.043157 0 
v -0.0551599 0.043157 0.002 
v -0.0551599 0.0487811 0 
v -0.0551599 0.0487811 0.002 
v -0.0483786 0.0487811 0 
v -0.0483786 0.0487811 0.002 
v -0.0483786 0.0503688 0.002 
v -0.056946 0.0503688 0.002 
v -0.056946 0.0503688 0 
v -0.0483786 0.0503688 0 
vn 0 -1 0 
vn 1 0 0 
vn 0 1 0 
vn 0 -1 0 
vn 0 0 1 
vn 0 0 -1 
vn 1 0 0 
vn 0 1 0 
vn -1 0 0 
usemtl 0.647059_0.647059_0.647059_0.000000_0.000000
o mesh0
f 1//1 2//1 3//1 
f 3//1 4//1 1//1 
o mesh1
f 4//2 3//2 5//2 
f 5//2 6//2 4//2 
o mesh2
f 6//1 5//1 7//1 
f 7//1 8//1 6//1 
o mesh3
f 8//2 7//2 9//2 
f 9//2 10//2 8//2 
o mesh4
f 10//3 9//3 11//3 
f 11//3 12//3 10//3 
o mesh5
f 12//2 11//2 13//2 
f 13//2 14//2 12//2 
o mesh6
f 14//4 13//4 15//4 
f 15//4 16//4 14//4 
o mesh7
f 17//5 18//5 14//5 
f 18//5 6//5 12//5 
f 12//5 14//5 18//5 
f 10//5 12//5 6//5 
f 6//5 8//5 10//5 
f 1//5 4//5 6//5 
f 6//5 18//5 1//5 
f 14//5 16//5 17//5 
o mesh8
f 2//6 11//6 5//6 
f 7//6 5//6 11//6 
f 11//6 9//6 7//6 
f 19//6 13//6 11//6 
f 11//6 2//6 19//6 
f 20//6 15//6 13//6 
f 13//6 19//6 20//6 
f 5//6 3//6 2//6 
o mesh9
f 16//7 15//7 20//7 
f 20//7 17//7 16//7 
o mesh10
f 17//8 20//8 19//8 
f 19//8 18//8 17//8 
o mesh11
f 18//9 19//9 2//9 
f 2//9 1//9 18//9 
g Part 3
v -0.0458357 0.0503688 0.002 
v -0.0458357 0.0503688 0 
v -0.0458357 0.035 0 
v -0.0458357 0.035 0.002 
v -0.0440495 0.035 0 
v -0.0440495 0.035 0.002 
v -0.0440495 0.0503688 0 
v -0.0440495 0.0503688 0.002 
vn -1 0 0 
vn 0 -1 0 
vn 1 0 0 
vn 0 1 0 
vn 0 0 1 
vn 0 0 -1 
usemtl 0.231373_0.380392_0.705882_0.000000_0.000000
o mesh12
f 21//10 22//10 23//10 
f 23//10 24//10 21//10 
o mesh13
f 24//11 23//11 25//11 
f 25//11 26//11 24//11 
o mesh14
f 26//12 25//12 27//12 
f 27//12 28//12 26//12 
o mesh15
f 28//13 27//13 22//13 
f 22//13 21//13 28//13 
o mesh16
f 28//14 21//14 24//14 
f 24//14 26//14 28//14 
o mesh17
f 25//15 23//15 22//15 
f 22//15 27//15 25//15 
g Part 4
v -0.0298681 0.035 0.002 
v -0.0298681 0.035 0 
v -0.0278297 0.035 0 
v -0.0278297 0.035 0.002 
v -0.0278297 0.0503688 0 
v -0.0278297 0.0503688 0.002 
v -0.0295015 0.0503688 0 
v -0.0295015 0.0503688 0.002 
v -0.0295015 0.0415492 0 
v -0.0295015 0.0415492 0.002 
v -0.0294981 0.040667 0.002 
v -0.0294981 0.040667 0 
v -0.0294476 0.0393459 0 
v -0.0294476 0.0393459 0.002 
v -0.0293543 0.0375228 0 
v -0.0293543 0.0375228 0.002 
v -0.0294376 0.0375228 0 
v -0.0294376 0.0375228 0.002 
v -0.0378166 0.0503688 0 
v -0.0378166 0.0503688 0.002 
v -0.0398348 0.0503688 0 
v -0.0398348 0.0503688 0.002 
v -0.0398348 0.035 0 
v -0.0398348 0.035 0.002 
v -0.0381832 0.035 0 
v -0.0381832 0.035 0.002 
v -0.0381832 0.0437356 0 
v -0.0381832 0.0437356 0.002 
v -0.0382673 0.0478965 0.002 
v -0.0383514 0.0478965 0.002 
v -0.0382253 0.045721 0.002 
v -0.0382673 0.0478965 0 
v -0.0383514 0.0478965 0 
v -0.0382253 0.045721 0 
vn 0 -1 0 
vn 1 0 0 
vn 0 1 0 
vn -1 0 0 
vn -0.999702 -0.0244202 0 
vn -0.998848 -0.0479796 0 
vn -0.999537 0.0304427 0 
vn -0.998405 -0.0564541 0 
vn -0.998971 -0.0453508 0 
vn 0 1 0 
vn 0.837576 0.546321 0 
vn -1 0 0 
vn 0 -1 0 
vn 1 0 0 
vn 0 0 1 
vn 0 0 -1 
vn 0.999184 0.0403874 0 
vn 0.997268 0.0738717 0 
vn 1 0 0 
vn 0 -1 0 
vn -0.837954 -0.545741 0 
usemtl 0.917647_0.917647_0.917647_0.000000_0.000000
o mesh18
f 29//16 30//16 31//16 
f 31//16 32//16 29//16 
o mesh19
f 32//17 31//17 33//17 
f 33//17 34//17 32//17 
o mesh20
f 34//18 33//18 35//18 
f 35//18 36//18 34//18 
o mesh21
f 36//19 35//19 37//19 
f 37//19 38//19 36//19 
o mesh22
f 39//20 40//20 41//21 
f 38//22 37//22 40//20 
f 40//20 39//20 38//22 
f 41//21 42//21 39//20 
o mesh23
f 43//23 44//23 42//24 
f 42//24 41//24 43//23 
o mesh24
f 44//25 43//25 45//25 
f 45//25 46//25 44//25 
o mesh25
f 46//26 45//26 47//26 
f 47//26 48//26 46//26 
o mesh26
f 48//25 47//25 49//25 
f 49//25 50//25 48//25 
o mesh27
f 50//27 49//27 51//27 
f 51//27 52//27 50//27 
o mesh28
f 52//28 51//28 53//28 
f 53//28 54//28 52//28 
o mesh29
f 54//29 53//29 55//29 
f 55//29 56//29 54//29 
o mesh30
f 57//30 29//30 46//30 
f 29//30 32//30 44//30 
f 32//30 38//30 39//30 
f 44//30 46//30 29//30 
f 48//30 50//30 58//30 
f 39//30 42//30 32//30 
f 34//30 36//30 38//30 
f 58//30 57//30 48//30 
f 38//30 32//30 34//30 
f 50//30 56//30 59//30 
f 52//30 54//30 56//30 
f 42//30 44//30 32//30 
f 56//30 50//30 52//30 
f 59//30 58//30 50//30 
f 46//30 48//30 57//30 
o mesh31
f 31//31 41//31 40//31 
f 30//31 45//31 43//31 
f 60//31 47//31 45//31 
f 33//31 31//31 37//31 
f 31//31 43//31 41//31 
f 47//31 60//31 61//31 
f 45//31 30//31 60//31 
f 51//31 49//31 55//31 
f 49//31 61//31 62//31 
f 40//31 37//31 31//31 
f 43//31 31//31 30//31 
f 62//31 55//31 49//31 
f 61//31 49//31 47//31 
f 37//31 35//31 33//31 
f 55//31 53//31 51//31 
o mesh32
f 59//32 62//32 61//33 
f 56//34 55//34 62//32 
f 62//32 59//32 56//34 
f 61//33 58//33 59//32 
o mesh33
f 58//35 61//35 60//35 
f 60//35 57//35 58//35 
o mesh34
f 57//36 60//36 30//36 
f 30//36 29//36 57//36 
g Part 5
v -0.0236049 0.0503688 0.002 
v -0.0236049 0.0503688 0 
v -0.0236049 0.035 0 
v -0.0236049 0.035 0.002 
v -0.0218187 0.035 0 
v -0.0218187 0.035 0.002 
v -0.0218187 0.0503688 0 
v -0.0218187 0.0503688 0.002 
vn -1 0 0 
vn 0 -1 0 
vn 1 0 0 
vn 0 1 0 
vn 0 0 1 
vn 0 0 -1 
usemtl 0.768627_0.886275_0.952941_0.000000_0.000000
o mesh35
f 63//37 64//37 65//37 
f 65//37 66//37 63//37 
o mesh36
f 66//38 65//38 67//38 
f 67//38 68//38 66//38 
o mesh37
f 68//39 67//39 69//39 
f 69//39 70//39 68//39 
o mesh38
f 70//40 69//40 64//40 
f 64//40 63//40 70//40 
o mesh39
f 70//41 63//41 66//41 
f 66//41 68//41 70//41 
o mesh40
f 67//42 65//42 64//42 
f 64//42 69//42 67//42 
g Part 6
v -0.00895622 0.038588 0.002 
v -0.00895622 0.038588 0 
v -0.00893235 0.0390903 0 
v -0.00901945 0.0381561 0.002 
v -0.00901945 0.0381561 0 
v -0.00911416 0.0377745 0.002 
v -0.00911416 0.0377745 0 
v -0.0092364 0.0374305 0.002 
v -0.0092364 0.0374305 0 
v -0.00939964 0.0370874 0.002 
v -0.00939964 0.0370874 0 
v -0.00959129 0.0367749 0.002 
v -0.00959129 0.0367749 0 
v -0.00981334 0.0364852 0.002 
v -0.00981334 0.0364852 0 
v -0.0100708 0.0362119 0.002 
v -0.0100708 0.0362119 0 
v -0.010404 0.035925 0.002 
v -0.010404 0.035925 0 
v -0.00893235 0.0390903 0.002 
v -0.0096325 0.0414035 0.002 
v -0.0096325 0.0414035 0 
v -0.00984055 0.0416534 0 
v -0.00944206 0.0411205 0.002 
v -0.00944206 0.0411205 0 
v -0.00928382 0.0408224 0.002 
v -0.00928382 0.0408224 0 
v -0.00915415 0.0405033 0.002 
v -0.00915415 0.0405033 0 
v -0.00905182 0.0401552 0.002 
v -0.00905182 0.0401552 0 
v -0.00897821 0.0397683 0.002 
v -0.00897821 0.0397683 0 
v -0.00893774 0.0393294 0.002 
v -0.00893774 0.0393294 0 
v -0.00984055 0.0416534 0.002 
v -0.0117643 0.0429347 0.002 
v -0.0117643 0.0429347 0 
v -0.0131673 0.0435035 0 
v -0.0109896 0.0425327 0.002 
v -0.0109896 0.0425327 0 
v -0.0104762 0.0422034 0.002 
v -0.0104762 0.0422034 0 
v -0.0101258 0.041929 0.002 
v -0.0101258 0.041929 0 
v -0.00987638 0.0416918 0.002 
v -0.00987638 0.0416918 0 
v -0.0131673 0.0435035 0.002 
v -0.0148402 0.0441902 0.002 
v -0.0148402 0.0441902 0 
v -0.0153066 0.0444436 0 
v -0.0137416 0.0437166 0.002 
v -0.0137416 0.0437166 0 
v -0.0153066 0.0444436 0.002 
v -0.0161939 0.045216 0.002 
v -0.0161939 0.045216 0 
v -0.0163006 0.0453804 0 
v -0.0160672 0.045058 0.002 
v -0.0160672 0.045058 0 
v -0.0159047 0.0448904 0.002 
v -0.0159047 0.0448904 0 
v -0.0156946 0.0447104 0.002 
v -0.0156946 0.0447104 0 
v -0.0154181 0.0445137 0.002 
v -0.0154181 0.0445137 0 
v -0.0163006 0.0453804 0.002 
v -0.0165781 0.0463241 0.002 
v -0.0165781 0.0463241 0 
v -0.0165949 0.0466889 0 
v -0.0165368 0.0460369 0.002 
v -0.0165368 0.0460369 0 
v -0.0164795 0.0458026 0.002 
v -0.0164795 0.0458026 0 
v -0.0164107 0.0456065 0.002 
v -0.0164107 0.0456065 0 
v -0.0163331 0.0454396 0.002 
v -0.0163331 0.0454396 0 
v -0.0165949 0.0466889 0.002 
v -0.015962 0.0482413 0.002 
v -0.015962 0.0482413 0 
v -0.015796 0.0483809 0 
v -0.0161012 0.0480987 0.002 
v -0.0161012 0.0480987 0 
v -0.0162297 0.0479367 0.002 
v -0.0162297 0.0479367 0 
v -0.0163352 0.0477699 0.002 
v -0.0163352 0.0477699 0 
v -0.0164213 0.0475956 0.002 
v -0.0164213 0.0475956 0 
v -0.0164904 0.0474102 0.002 
v -0.0164904 0.0474102 0 
v -0.0165433 0.047209 0.002 
v -0.0165433 0.047209 0 
v -0.0165788 0.0469865 0.002 
v -0.0165788 0.0469865 0 
v -0.0165947 0.0467244 0.002 
v -0.0165947 0.0467244 0 
v -0.015796 0.0483809 0.002 
v -0.0141747 0.04896 0.002 
v -0.0141747 0.04896 0 
v -0.0135776 0.0489897 0 
v -0.0145977 0.0488956 0.002 
v -0.0145977 0.0488956 0 
v -0.0149407 0.0488088 0.002 
v -0.0149407 0.0488088 0 
v -0.0152259 0.0487062 0.002 
v -0.0152259 0.0487062 0 
v -0.0154685 0.048591 0.002 
v -0.0154685 0.048591 0 
v -0.015679 0.0484646 0.002 
v -0.015679 0.0484646 0 
v -0.0135776 0.0489897 0.002 
v -0.0109948 0.0485945 0.002 
v -0.0109948 0.0485945 0 
v -0.00987755 0.0481925 0 
v -0.0119242 0.0488253 0.002 
v -0.0119242 0.0488253 0 
v -0.0127837 0.0489513 0.002 
v -0.0127837 0.0489513 0 
v -0.00987755 0.0481925 0.002 
v -0.00931917 0.0497465 0 
v -0.00931917 0.0497465 0.002 
v -0.0123065 0.0505244 0.002 
v -0.0123065 0.0505244 0 
v -0.0135339 0.0505875 0 
v -0.0112772 0.0503655 0.002 
v -0.0112772 0.0503655 0 
v -0.0102337 0.0500921 0.002 
v -0.0102337 0.0500921 0 
v -0.0135339 0.0505875 0.002 
v -0.0166894 0.0498023 0.002 
v -0.0166894 0.0498023 0 
v -0.0170675 0.0495363 0 
v -0.0162973 0.0500208 0.002 
v -0.0162973 0.0500208 0 
v -0.0158641 0.0502082 0.002 
v -0.0158641 0.0502082 0 
v -0.015377 0.0503644 0.002 
v -0.015377 0.0503644 0 
v -0.0148185 0.0504858 0.002 
v -0.0148185 0.0504858 0 
v -0.0141649 0.0505645 0.002 
v -0.0141649 0.0505645 0 
v -0.0170675 0.0495363 0.002 
v -0.0183808 0.047137 0.002 
v -0.0183808 0.047137 0 
v -0.0184012 0.0467091 0 
v -0.0183259 0.0475122 0.002 
v -0.0183259 0.0475122 0 
v -0.0182423 0.0478487 0.002 
v -0.0182423 0.0478487 0 
v -0.0181204 0.0481865 0.002 
v -0.0181204 0.0481865 0 
v -0.0179709 0.0484928 0.002 
v -0.0179709 0.0484928 0 
v -0.0177939 0.048776 0.002 
v -0.0177939 0.048776 0 
v -0.017586 0.0490431 0.002 
v -0.017586 0.0490431 0 
v -0.0173417 0.0492992 0.002 
v -0.0173417 0.0492992 0 
v -0.0184012 0.0467091 0.002 
v -0.0176921 0.0442322 0.002 
v -0.0176921 0.0442322 0 
v -0.0174812 0.043966 0 
v -0.017885 0.0445339 0.002 
v -0.017885 0.0445339 0 
v -0.0180471 0.0448563 0.002 
v -0.0180471 0.0448563 0 
v -0.0181809 0.0452065 0.002 
v -0.0181809 0.0452065 0 
v -0.0182865 0.0455942 0.002 
v -0.0182865 0.0455942 0 
v -0.0183612 0.0460316 0.002 
v -0.0183612 0.0460316 0 
v -0.0183987 0.0465354 0.002 
v -0.0183987 0.0465354 0 
v -0.0174812 0.043966 0.002 
v -0.0156415 0.0426565 0.002 
v -0.0156415 0.0426565 0 
v -0.0144186 0.0421479 0 
v -0.0163223 0.043026 0.002 
v -0.0163223 0.043026 0 
v -0.016811 0.0433548 0.002 
v -0.016811 0.0433548 0 
v -0.0171707 0.0436506 0.002 
v -0.0171707 0.0436506 0 
v -0.0174426 0.0439226 0.002 
v -0.0174426 0.0439226 0 
v -0.0144186 0.0421479 0.002 
v -0.0128409 0.0415262 0.002 
v -0.0128409 0.0415262 0 
v -0.0121329 0.0411707 0 
v -0.0140941 0.0420307 0.002 
v -0.0140941 0.0420307 0 
v -0.0121329 0.0411707 0.002 
v -0.0111751 0.0403917 0.002 
v -0.0111751 0.0403917 0 
v -0.0110599 0.0402289 0 
v -0.0113124 0.0405501 0.002 
v -0.0113124 0.0405501 0 
v -0.0114909 0.040721 0.002 
v -0.0114909 0.040721 0 
v -0.0117258 0.0409082 0.002 
v -0.0117258 0.0409082 0 
v -0.0120412 0.0411167 0.002 
v -0.0120412 0.0411167 0 
v -0.0110599 0.0402289 0.002 
v -0.0107544 0.0392605 0.002 
v -0.0107544 0.0392605 0 
v -0.0107387 0.0389221 0 
v -0.0107935 0.0395318 0.002 
v -0.0107935 0.0395318 0 
v -0.0108487 0.0397567 0.002 
v -0.0108487 0.0397567 0 
v -0.0109158 0.0399475 0.002 
v -0.0109158 0.0399475 0 
v -0.010993 0.0401131 0.002 
v -0.010993 0.0401131 0 
v -0.0107387 0.0389221 0.002 
v -0.0114557 0.0371886 0.002 
v -0.0114557 0.0371886 0 
v -0.0116435 0.0370334 0 
v -0.0112985 0.037347 0.002 
v -0.0112985 0.037347 0 
v -0.0111533 0.037527 0.002 
v -0.0111533 0.037527 0 
v -0.0110343 0.0377119 0.002 
v -0.0110343 0.0377119 0 
v -0.0109372 0.0379046 0.002 
v -0.0109372 0.0379046 0 
v -0.0108592 0.0381092 0.002 
v -0.0108592 0.0381092 0 
v -0.0107994 0.0383305 0.002 
v -0.0107994 0.0383305 0 
v -0.0107586 0.0385747 0.002 
v -0.0107586 0.0385747 0 
v -0.0107395 0.0388496 0.002 
v -0.0107395 0.0388496 0 
v -0.0116435 0.0370334 0.002 
v -0.0136241 0.0363854 0.002 
v -0.0136241 0.0363854 0 
v -0.0143345 0.0363556 0 
v -0.0130628 0.036461 0.002 
v -0.0130628 0.036461 0 
v -0.0126332 0.0365615 0.002 
v -0.0126332 0.0365615 0 
v -0.0122936 0.0366765 0.002 
v -0.0122936 0.0366765 0 
v -0.0120178 0.036801 0.002 
v -0.0120178 0.036801 0 
v -0.0117886 0.0369326 0.002 
v -0.0117886 0.0369326 0 
v -0.0143345 0.0363556 0.002 
v -0.0150378 0.0363797 0 
v -0.0158481 0.0364652 0 
v -0.0158481 0.0364652 0.002 
v -0.016541 0.0365881 0 
v -0.016541 0.0365881 0.002 
v -0.0150378 0.0363797 0.002 
v -0.0175869 0.036853 0 
v -0.018603 0.0372157 0 
v -0.018603 0.0372157 0.002 
v -0.0175869 0.036853 0.002 
v -0.0160063 0.0348593 0.002 
v -0.0143984 0.0347881 0.002 
v -0.0177539 0.0351755 0.002 
v -0.0182832 0.0353553 0.002 
v -0.0170238 0.035002 0.002 
v -0.0136612 0.034814 0.002 
v -0.0128976 0.0349035 0.002 
v -0.018603 0.0354945 0.002 
v -0.0122581 0.0350395 0.002 
v -0.0117108 0.0352115 0.002 
v -0.0112329 0.0354142 0.002 
v -0.0108084 0.0356461 0.002 
v -0.0160063 0.0348593 0 
v -0.0170238 0.035002 0 
v -0.0177539 0.0351755 0 
v -0.0143984 0.0347881 0 
v -0.0136612 0.034814 0 
v -0.0182832 0.0353553 0 
v -0.0128976 0.0349035 0 
v -0.018603 0.0354945 0 
v -0.0122581 0.0350395 0 
v -0.0108084 0.0356461 0 
v -0.0117108 0.0352115 0 
v -0.0112329 0.0354142 0 
vn 0.995242 -0.0974329 0 
vn 1 0 0 
vn 0.981022 -0.193897 0 
vn 0.957402 -0.288758 0 
vn 0.924565 -0.381023 0 
vn 0.878646 -0.477473 0 
vn 0.82395 -0.566663 0 
vn 0.761715 -0.647912 0 
vn 0.693032 -0.720907 0 
vn 0.61137 -0.791345 0 
vn 1 0 0 
vn 0.799212 0.60105 0 
vn 0.73653 0.676405 0 
vn 0.857846 0.513907 0 
vn 0.906106 0.423051 0 
vn 0.944068 0.32975 0 
vn 0.971975 0.235083 0 
vn 0.990141 0.140078 0 
vn 0.998955 0.0457094 0 
vn 1 0 0 
vn 0.73653 0.676405 0 
vn 0.423277 0.906 0 
vn 0.335423 0.942068 0 
vn 0.502663 0.864483 0 
vn 0.580609 0.814183 0 
vn 0.654865 0.755746 0 
vn 0.724856 0.688901 0 
vn 0.73653 0.676405 0 
vn 0.335423 0.942068 0 
vn 0.442878 0.896582 0 
vn 0.519621 0.854397 0 
vn 0.360344 0.932819 0 
vn 0.336615 0.941642 0 
vn 0.519621 0.854397 0 
vn 0.809735 0.586795 0 
vn 0.86666 0.4989 0 
vn 0.750517 0.660851 0 
vn 0.685803 0.727787 0 
vn 0.616738 0.787169 0 
vn 0.544321 0.838877 0 
vn 0.519621 0.854397 0 
vn 0.86666 0.4989 0 
vn 0.995372 0.0960962 0 
vn 1 0 0 
vn 0.981484 0.191544 0 
vn 0.958307 0.285742 0 
vn 0.925963 0.377613 0 
vn 0.884985 0.46562 0 
vn 0.86666 0.4989 0 
vn 1 0 0 
vn 0.680834 -0.732438 0 
vn 0.606144 -0.795355 0 
vn 0.749177 -0.66237 0 
vn 0.816016 -0.57803 0 
vn 0.872321 -0.488934 0 
vn 0.918006 -0.396566 0 
vn 0.953291 -0.302053 0 
vn 0.978454 -0.206464 0 
vn 0.99384 -0.110821 0 
vn 0.999926 -0.0122051 0 
vn 1 0 0 
vn 0.606144 -0.795355 0 
vn 0.104339 -0.994542 0 
vn 0 -1 0 
vn 0.199485 -0.979901 0 
vn 0.293418 -0.955984 0 
vn 0.384976 -0.922927 0 
vn 0.473147 -0.880984 0 
vn 0.556984 -0.830523 0 
vn 0.606144 -0.795355 0 
vn 0 -1 0 
vn -0.287215 -0.957866 0 
vn -0.386235 -0.9224 0 
vn -0.192518 -0.981294 0 
vn -0.0957393 -0.995406 0 
vn 0 -1 0 
vn -0.386235 -0.9224 0 
vn 0.941095 -0.338142 0 
vn 0.104593 0.994515 0 
vn 0 1 0 
vn 0.201276 0.979535 0 
vn 0.30582 0.952089 0 
vn 0.400483 0.916304 0 
vn 0 1 0 
vn -0.530581 0.847635 0 
vn -0.619002 0.78539 0 
vn -0.442522 0.896758 0 
vn -0.351864 0.936051 0 
vn -0.259677 0.965696 0 
vn -0.166977 0.985961 0 
vn -0.0747342 0.997203 0 
vn 0 1 0 
vn -0.619002 0.78539 0 
vn -0.995259 0.0972634 0 
vn -1 0 0 
vn -0.981029 0.193859 0 
vn -0.957387 0.288809 0 
vn -0.920657 0.390373 0 
vn -0.874272 0.485436 0 
vn -0.819476 0.573114 0 
vn -0.757352 0.653007 0 
vn -0.688964 0.724796 0 
vn -0.619002 0.78539 0 
vn -1 0 0 
vn -0.813406 -0.581697 0 
vn -0.752502 -0.65859 0 
vn -0.869305 -0.494276 0 
vn -0.914988 -0.40348 0 
vn -0.950575 -0.310494 0 
vn -0.97631 -0.216376 0 
vn -0.992513 -0.122137 0 
vn -0.999587 -0.0287358 0 
vn -1 0 0 
vn -0.752502 -0.65859 0 
vn -0.437477 -0.89923 0 
vn -0.336992 -0.941508 0 
vn -0.519752 -0.854317 0 
vn -0.598806 -0.800894 0 
vn -0.673046 -0.7396 0 
vn -0.741692 -0.67074 0 
vn -0.752502 -0.65859 0 
vn -0.336992 -0.941508 0 
vn -0.410603 -0.911814 0 
vn -0.498435 -0.866927 0 
vn -0.345079 -0.938574 0 
vn -0.334765 -0.942302 0 
vn -0.498435 -0.866927 0 
vn -0.786088 -0.618115 0 
vn -0.845953 -0.533257 0 
vn -0.725049 -0.688698 0 
vn -0.658957 -0.75218 0 
vn -0.589022 -0.808117 0 
vn -0.516244 -0.856441 0 
vn -0.498435 -0.866927 0 
vn -0.845953 -0.533257 0 
vn -0.995349 -0.0963396 0 
vn -1 0 0 
vn -0.981387 -0.192038 0 
vn -0.95811 -0.286399 0 
vn -0.925654 -0.37837 0 
vn -0.88428 -0.466957 0 
vn -0.845953 -0.533257 0 
vn -1 0 0 
vn -0.674715 0.738078 0 
vn -0.599524 0.800357 0 
vn -0.743625 0.668597 0 
vn -0.811324 0.584597 0 
vn -0.868478 0.495728 0 
vn -0.91498 0.403499 0 
vn -0.951048 0.309043 0 
vn -0.976958 0.213433 0 
vn -0.99305 0.117695 0 
vn -0.99974 0.0227978 0 
vn -1 0 0 
vn -0.599524 0.800357 0 
vn -0.0884176 0.996083 0 
vn 0 1 0 
vn -0.182668 0.983175 0 
vn -0.276127 0.961121 0 
vn -0.367672 0.929956 0 
vn -0.456204 0.889875 0 
vn -0.540716 0.841205 0 
vn -0.599524 0.800357 0 
vn 0 1 0 
vn 0.0673271 0.997731 0 
vn 0.142424 0.989806 0 
vn 0.206643 0.978416 0 
vn 0.00214584 0.999998 0 
vn 0.0673271 0.997731 0 
vn 0.290986 0.956727 0 
vn 0.38072 0.92469 0 
vn 0.19861 0.980079 0 
vn 0.290986 0.956727 0 
vn 0 0 1 
vn 0 0 -1 
vn -1 0 0 
vn -0.0957606 -0.995404 0 
vn 0 -1 0 
vn -0.187294 -0.982304 0 
vn -0.279123 -0.960255 0 
vn -0.367064 -0.930196 0 
vn -0.432329 -0.901716 0 
vn 0 -1 0 
vn 0.523011 -0.852326 0 
vn 0.61137 -0.791345 0 
vn 0.435759 -0.900063 0 
vn 0.346017 -0.938228 0 
vn 0.254873 -0.966974 0 
vn 0.163332 -0.986571 0 
vn 0.0723496 -0.997379 0 
vn 0 -1 0 
vn 0.61137 -0.791345 0 
usemtl 0.972549_0.529412_0.003922_0.000000_0.000000
o mesh41
f 71//43 72//43 73//44 
f 74//45 75//45 72//43 
f 76//46 77//46 75//45 
f 78//47 79//47 77//46 
f 80//48 81//48 79//47 
f 82//49 83//49 81//48 
f 84//50 85//50 83//49 
f 86//51 87//51 85//50 
f 88//52 89//52 87//51 
f 87//51 86//51 88//52 
f 85//50 84//50 86//51 
f 83//49 82//49 84//50 
f 81//48 80//48 82//49 
f 79//47 78//47 80//48 
f 77//46 76//46 78//47 
f 75//45 74//45 76//46 
f 72//43 71//43 74//45 
f 73//44 90//53 71//43 
o mesh42
f 91//54 92//54 93//55 
f 94//56 95//56 92//54 
f 96//57 97//57 95//56 
f 98//58 99//58 97//57 
f 100//59 101//59 99//58 
f 102//60 103//60 101//59 
f 104//61 105//61 103//60 
f 90//62 73//62 105//61 
f 105//61 104//61 90//62 
f 103//60 102//60 104//61 
f 101//59 100//59 102//60 
f 99//58 98//58 100//59 
f 97//57 96//57 98//58 
f 95//56 94//56 96//57 
f 92//54 91//54 94//56 
f 93//55 106//63 91//54 
o mesh43
f 107//64 108//64 109//65 
f 110//66 111//66 108//64 
f 112//67 113//67 111//66 
f 114//68 115//68 113//67 
f 116//69 117//69 115//68 
f 106//70 93//70 117//69 
f 117//69 116//69 106//70 
f 115//68 114//68 116//69 
f 113//67 112//67 114//68 
f 111//66 110//66 112//67 
f 108//64 107//64 110//66 
f 109//65 118//71 107//64 
o mesh44
f 119//72 120//72 121//73 
f 122//74 123//74 120//72 
f 118//75 109//75 123//74 
f 123//74 122//74 118//75 
f 120//72 119//72 122//74 
f 121//73 124//76 119//72 
o mesh45
f 125//77 126//77 127//78 
f 128//79 129//79 126//77 
f 130//80 131//80 129//79 
f 132//81 133//81 131//80 
f 134//82 135//82 133//81 
f 124//83 121//83 135//82 
f 135//82 134//82 124//83 
f 133//81 132//81 134//82 
f 131//80 130//80 132//81 
f 129//79 128//79 130//80 
f 126//77 125//77 128//79 
f 127//78 136//84 125//77 
o mesh46
f 137//85 138//85 139//86 
f 140//87 141//87 138//85 
f 142//88 143//88 141//87 
f 144//89 145//89 143//88 
f 146//90 147//90 145//89 
f 136//91 127//91 147//90 
f 147//90 146//90 136//91 
f 145//89 144//89 146//90 
f 143//88 142//88 144//89 
f 141//87 140//87 142//88 
f 138//85 137//85 140//87 
f 139//86 148//92 137//85 
o mesh47
f 149//93 150//93 151//94 
f 152//95 153//95 150//93 
f 154//96 155//96 153//95 
f 156//97 157//97 155//96 
f 158//98 159//98 157//97 
f 160//99 161//99 159//98 
f 162//100 163//100 161//99 
f 164//101 165//101 163//100 
f 166//102 167//102 165//101 
f 148//103 139//103 167//102 
f 167//102 166//102 148//103 
f 165//101 164//101 166//102 
f 163//100 162//100 164//101 
f 161//99 160//99 162//100 
f 159//98 158//98 160//99 
f 157//97 156//97 158//98 
f 155//96 154//96 156//97 
f 153//95 152//95 154//96 
f 150//93 149//93 152//95 
f 151//94 168//104 149//93 
o mesh48
f 169//105 170//105 171//106 
f 172//107 173//107 170//105 
f 174//108 175//108 173//107 
f 176//109 177//109 175//108 
f 178//110 179//110 177//109 
f 180//111 181//111 179//110 
f 168//112 151//112 181//111 
f 181//111 180//111 168//112 
f 179//110 178//110 180//111 
f 177//109 176//109 178//110 
f 175//108 174//108 176//109 
f 173//107 172//107 174//108 
f 170//105 169//105 172//107 
f 171//106 182//113 169//105 
o mesh49
f 183//114 184//114 185//115 
f 186//116 187//116 184//114 
f 188//117 189//117 187//116 
f 182//118 171//118 189//117 
f 189//117 188//117 182//118 
f 187//116 186//116 188//117 
f 184//114 183//114 186//116 
f 185//115 190//119 183//114 
o mesh50
f 190//120 185//120 191//120 
f 191//120 192//120 190//120 
o mesh51
f 193//121 194//121 195//122 
f 196//123 197//123 194//121 
f 198//124 199//124 197//123 
f 192//125 191//125 199//124 
f 199//124 198//124 192//125 
f 197//123 196//123 198//124 
f 194//121 193//121 196//123 
f 195//122 200//126 193//121 
o mesh52
f 201//127 202//127 203//128 
f 204//129 205//129 202//127 
f 206//130 207//130 205//129 
f 208//131 209//131 207//130 
f 210//132 211//132 209//131 
f 212//133 213//133 211//132 
f 200//134 195//134 213//133 
f 213//133 212//133 200//134 
f 211//132 210//132 212//133 
f 209//131 208//131 210//132 
f 207//130 206//130 208//131 
f 205//129 204//129 206//130 
f 202//127 201//127 204//129 
f 203//128 214//135 201//127 
o mesh53
f 215//136 216//136 217//137 
f 218//138 219//138 216//136 
f 220//139 221//139 219//138 
f 222//140 223//140 221//139 
f 224//141 225//141 223//140 
f 226//142 227//142 225//141 
f 228//143 229//143 227//142 
f 230//144 231//144 229//143 
f 214//145 203//145 231//144 
f 231//144 230//144 214//145 
f 229//143 228//143 230//144 
f 227//142 226//142 228//143 
f 225//141 224//141 226//142 
f 223//140 222//140 224//141 
f 221//139 220//139 222//140 
f 219//138 218//138 220//139 
f 216//136 215//136 218//138 
f 217//137 232//146 215//136 
o mesh54
f 233//147 234//147 235//148 
f 236//149 237//149 234//147 
f 238//150 239//150 237//149 
f 240//151 241//151 239//150 
f 242//152 243//152 241//151 
f 244//153 245//153 243//152 
f 246//154 247//154 245//153 
f 232//155 217//155 247//154 
f 247//154 246//154 232//155 
f 245//153 244//153 246//154 
f 243//152 242//152 244//153 
f 241//151 240//151 242//152 
f 239//150 238//150 240//151 
f 237//149 236//149 238//150 
f 234//147 233//147 236//149 
f 235//148 248//156 233//147 
o mesh55
f 249//157 250//157 251//158 
f 252//159 253//159 250//157 
f 254//160 255//160 253//159 
f 256//161 257//161 255//160 
f 258//162 259//162 257//161 
f 248//163 235//163 259//162 
f 259//162 258//162 248//163 
f 257//161 256//161 258//162 
f 255//160 254//160 256//161 
f 253//159 252//159 254//160 
f 250//157 249//157 252//159 
f 251//158 260//164 249//157 
o mesh56
f 261//165 262//165 263//166 
f 264//167 265//167 262//165 
f 260//168 251//168 265//167 
f 265//167 264//167 260//168 
f 262//165 261//165 264//167 
f 263//166 266//169 261//165 
o mesh57
f 267//170 268//170 269//171 
f 270//172 271//172 268//170 
f 272//173 273//173 271//172 
f 274//174 275//174 273//173 
f 276//175 277//175 275//174 
f 266//176 263//176 277//175 
f 277//175 276//175 266//176 
f 275//174 274//174 276//175 
f 273//173 272//173 274//174 
f 271//172 270//172 272//173 
f 268//170 267//170 270//172 
f 269//171 278//177 267//170 
o mesh58
f 279//178 280//178 281//179 
f 282//180 283//180 280//178 
f 284//181 285//181 283//180 
f 286//182 287//182 285//181 
f 288//183 289//183 287//182 
f 278//184 269//184 289//183 
f 289//183 288//183 278//184 
f 287//182 286//182 288//183 
f 285//181 284//181 286//182 
f 283//180 282//180 284//181 
f 280//178 279//178 282//180 
f 281//179 290//185 279//178 
o mesh59
f 291//186 292//186 293//187 
f 294//188 295//188 292//186 
f 296//189 297//189 295//188 
f 298//190 299//190 297//189 
f 300//191 301//191 299//190 
f 302//192 303//192 301//191 
f 304//193 305//193 303//192 
f 306//194 307//194 305//193 
f 308//195 309//195 307//194 
f 290//196 281//196 309//195 
f 309//195 308//195 290//196 
f 307//194 306//194 308//195 
f 305//193 304//193 306//194 
f 303//192 302//192 304//193 
f 301//191 300//191 302//192 
f 299//190 298//190 300//191 
f 297//189 296//189 298//190 
f 295//188 294//188 296//189 
f 292//186 291//186 294//188 
f 293//187 310//197 291//186 
o mesh60
f 311//198 312//198 313//199 
f 314//200 315//200 312//198 
f 316//201 317//201 315//200 
f 318//202 319//202 317//201 
f 320//203 321//203 319//202 
f 322//204 323//204 321//203 
f 310//205 293//205 323//204 
f 323//204 322//204 310//205 
f 321//203 320//203 322//204 
f 319//202 318//202 320//203 
f 317//201 316//201 318//202 
f 315//200 314//200 316//201 
f 312//198 311//198 314//200 
f 313//199 324//206 311//198 
o mesh61
f 325//207 326//208 327//208 
f 326//208 328//209 329//209 
f 313//210 325//207 330//211 
f 330//211 324//210 313//210 
f 329//209 327//208 326//208 
f 327//208 330//211 325//207 
o mesh62
f 331//212 332//213 333//213 
f 328//214 331//212 334//215 
f 334//215 329//214 328//214 
f 333//213 334//215 331//212 
o mesh63
f 118//216 264//216 261//216 
f 110//216 276//216 274//216 
f 261//216 107//216 118//216 
f 90//216 290//216 308//216 
f 279//216 290//216 90//216 
f 254//216 252//216 134//216 
f 110//216 266//216 276//216 
f 107//216 261//216 266//216 
f 260//216 122//216 119//216 
f 122//216 260//216 264//216 
f 246//216 244//216 137//216 
f 71//216 308//216 306//216 
f 90//216 104//216 279//216 
f 252//216 124//216 134//216 
f 249//216 119//216 124//216 
f 266//216 110//216 107//216 
f 118//216 122//216 264//216 
f 148//216 232//216 246//216 
f 74//216 306//216 304//216 
f 308//216 71//216 90//216 
f 254//216 132//216 130//216 
f 124//216 252//216 249//216 
f 119//216 249//216 260//216 
f 215//216 232//216 166//216 
f 137//216 148//216 246//216 
f 306//216 74//216 71//216 
f 102//216 282//216 279//216 
f 114//216 112//216 272//216 
f 134//216 132//216 254//216 
f 274//216 112//216 110//216 
f 148//216 166//216 232//216 
f 244//216 242//216 140//216 
f 279//216 104//216 102//216 
f 100//216 284//216 282//216 
f 96//216 288//216 286//216 
f 94//216 278//216 288//216 
f 270//216 116//216 114//216 
f 274//216 272//216 112//216 
f 335//216 327//216 329//216 
f 335//216 336//216 330//216 
f 140//216 137//216 244//216 
f 242//216 240//216 142//216 
f 238//216 236//216 146//216 
f 282//216 102//216 100//216 
f 98//216 286//216 284//216 
f 288//216 96//216 94//216 
f 91//216 267//216 278//216 
f 267//216 106//216 116//216 
f 256//216 130//216 128//216 
f 130//216 256//216 254//216 
f 329//216 334//216 337//216 
f 330//216 327//216 335//216 
f 142//216 140//216 242//216 
f 240//216 238//216 144//216 
f 236//216 136//216 146//216 
f 233//216 125//216 136//216 
f 284//216 100//216 98//216 
f 278//216 94//216 91//216 
f 248//216 128//216 125//216 
f 267//216 91//216 106//216 
f 272//216 270//216 114//216 
f 334//216 338//216 337//216 
f 336//216 324//216 330//216 
f 220//216 218//216 162//216 
f 218//216 215//216 164//216 
f 144//216 142//216 240//216 
f 136//216 236//216 233//216 
f 76//216 304//216 302//216 
f 286//216 98//216 96//216 
f 125//216 233//216 248//216 
f 128//216 258//216 256//216 
f 329//216 339//216 335//216 
f 340//216 311//216 324//216 
f 210//216 172//216 169//216 
f 208//216 174//216 172//216 
f 164//216 162//216 218//216 
f 146//216 144//216 238//216 
f 304//216 76//216 74//216 
f 116//216 270//216 267//216 
f 324//216 336//216 340//216 
f 341//216 314//216 311//216 
f 172//216 210//216 208//216 
f 206//216 176//216 174//216 
f 214//216 149//216 168//216 
f 166//216 164//216 215//216 
f 248//216 258//216 128//216 
f 334//216 333//216 342//216 
f 311//216 340//216 341//216 
f 193//216 188//216 186//216 
f 200//216 182//216 188//216 
f 174//216 208//216 206//216 
f 206//216 204//216 178//216 
f 204//216 201//216 180//216 
f 168//216 201//216 214//216 
f 222//216 220//216 160//216 
f 302//216 78//216 76//216 
f 337//216 339//216 329//216 
f 343//216 316//216 314//216 
f 196//216 186//216 183//216 
f 188//216 193//216 200//216 
f 178//216 176//216 206//216 
f 168//216 180//216 201//216 
f 224//216 158//216 156//216 
f 78//216 302//216 300//216 
f 162//216 160//216 220//216 
f 314//216 341//216 343//216 
f 344//216 318//216 316//216 
f 88//216 291//216 310//216 
f 186//216 196//216 193//216 
f 212//216 169//216 182//216 
f 180//216 178//216 204//216 
f 230//216 152//216 149//216 
f 156//216 226//216 224//216 
f 160//216 158//216 222//216 
f 316//216 343//216 344//216 
f 344//216 345//216 320//216 
f 345//216 346//216 322//216 
f 310//216 346//216 88//216 
f 182//216 200//216 212//216 
f 149//216 214//216 230//216 
f 80//216 300//216 298//216 
f 300//216 80//216 78//216 
f 320//216 318//216 344//216 
f 310//216 322//216 346//216 
f 190//216 192//216 198//216 
f 169//216 212//216 210//216 
f 226//216 156//216 154//216 
f 224//216 222//216 158//216 
f 322//216 320//216 345//216 
f 86//216 294//216 291//216 
f 183//216 198//216 196//216 
f 228//216 154//216 152//216 
f 82//216 298//216 296//216 
f 298//216 82//216 80//216 
f 291//216 88//216 86//216 
f 84//216 296//216 294//216 
f 152//216 230//216 228//216 
f 154//216 228//216 226//216 
f 294//216 86//216 84//216 
f 296//216 84//216 82//216 
f 198//216 183//216 190//216 
f 342//216 338//216 334//216 
o mesh64
f 109//217 108//217 262//217 
f 265//217 123//217 109//217 
f 111//217 113//217 275//217 
f 262//217 265//217 109//217 
f 251//217 250//217 120//217 
f 108//217 111//217 263//217 
f 275//217 277//217 111//217 
f 255//217 133//217 135//217 
f 280//217 105//217 73//217 
f 73//217 72//217 309//217 
f 120//217 123//217 251//217 
f 277//217 263//217 111//217 
f 250//217 253//217 121//217 
f 135//217 253//217 255//217 
f 309//217 281//217 73//217 
f 72//217 75//217 307//217 
f 247//217 139//217 138//217 
f 263//217 262//217 108//217 
f 135//217 121//217 253//217 
f 255//217 257//217 131//217 
f 307//217 309//217 72//217 
f 75//217 77//217 305//217 
f 138//217 245//217 247//217 
f 113//217 273//217 275//217 
f 131//217 133//217 255//217 
f 115//217 271//217 273//217 
f 103//217 105//217 280//217 
f 305//217 307//217 75//217 
f 217//217 167//217 139//217 
f 216//217 165//217 167//217 
f 121//217 120//217 250//217 
f 273//217 113//217 115//217 
f 95//217 97//217 289//217 
f 97//217 99//217 287//217 
f 101//217 103//217 283//217 
f 73//217 281//217 280//217 
f 245//217 138//217 141//217 
f 167//217 217//217 216//217 
f 115//217 117//217 271//217 
f 257//217 259//217 129//217 
f 268//217 271//217 117//217 
f 92//217 95//217 269//217 
f 287//217 289//217 97//217 
f 99//217 101//217 285//217 
f 280//217 283//217 103//217 
f 239//217 145//217 147//217 
f 243//217 141//217 143//217 
f 247//217 217//217 139//217 
f 347//217 326//217 325//217 
f 347//217 348//217 328//217 
f 129//217 131//217 257//217 
f 117//217 93//217 268//217 
f 235//217 234//217 126//217 
f 289//217 269//217 95//217 
f 283//217 285//217 101//217 
f 234//217 237//217 127//217 
f 147//217 237//217 239//217 
f 241//217 143//217 145//217 
f 141//217 243//217 245//217 
f 328//217 326//217 347//217 
f 328//217 348//217 349//217 
f 93//217 92//217 268//217 
f 129//217 259//217 235//217 
f 285//217 287//217 99//217 
f 77//217 79//217 303//217 
f 147//217 127//217 237//217 
f 143//217 241//217 243//217 
f 219//217 163//217 165//217 
f 221//217 161//217 163//217 
f 325//217 350//217 347//217 
f 349//217 331//217 328//217 
f 126//217 129//217 235//217 
f 303//217 305//217 77//217 
f 145//217 239//217 241//217 
f 163//217 219//217 221//217 
f 209//217 211//217 173//217 
f 211//217 213//217 170//217 
f 351//217 350//217 313//217 
f 349//217 352//217 331//217 
f 269//217 268//217 92//217 
f 165//217 216//217 219//217 
f 203//217 202//217 151//217 
f 207//217 209//217 175//217 
f 170//217 173//217 211//217 
f 353//217 351//217 312//217 
f 325//217 313//217 350//217 
f 127//217 126//217 234//217 
f 223//217 159//217 161//217 
f 202//217 181//217 151//217 
f 205//217 179//217 181//217 
f 207//217 177//217 179//217 
f 173//217 175//217 209//217 
f 195//217 194//217 189//217 
f 194//217 197//217 187//217 
f 313//217 312//217 351//217 
f 331//217 352//217 354//217 
f 161//217 221//217 223//217 
f 79//217 81//217 301//217 
f 225//217 227//217 157//217 
f 181//217 202//217 205//217 
f 175//217 177//217 207//217 
f 187//217 189//217 194//217 
f 197//217 199//217 184//217 
f 355//217 353//217 315//217 
f 354//217 332//217 331//217 
f 301//217 303//217 79//217 
f 159//217 223//217 225//217 
f 231//217 203//217 150//217 
f 179//217 205//217 207//217 
f 213//217 195//217 171//217 
f 184//217 187//217 197//217 
f 89//217 356//217 293//217 
f 357//217 355//217 317//217 
f 312//217 315//217 353//217 
f 157//217 159//217 225//217 
f 81//217 83//217 299//217 
f 151//217 150//217 203//217 
f 189//217 171//217 195//217 
f 356//217 323//217 293//217 
f 358//217 321//217 323//217 
f 357//217 319//217 321//217 
f 315//217 317//217 355//217 
f 299//217 301//217 81//217 
f 227//217 229//217 155//217 
f 171//217 170//217 213//217 
f 185//217 184//217 199//217 
f 323//217 356//217 358//217 
f 317//217 319//217 357//217 
f 155//217 157//217 227//217 
f 83//217 85//217 297//217 
f 229//217 231//217 153//217 
f 199//217 191//217 185//217 
f 87//217 89//217 292//217 
f 321//217 358//217 357//217 
f 297//217 299//217 83//217 
f 150//217 153//217 231//217 
f 85//217 87//217 295//217 
f 293//217 292//217 89//217 
f 153//217 155//217 229//217 
f 292//217 295//217 87//217 
f 295//217 297//217 85//217 
f 265//217 251//217 123//217 
o mesh65
f 333//218 332//218 354//218 
f 354//218 342//218 333//218 
o mesh66
f 335//219 347//219 350//220 
f 339//221 348//221 347//219 
f 337//222 349//222 348//221 
f 338//223 352//223 349//222 
f 342//224 354//224 352//223 
f 352//223 338//223 342//224 
f 349//222 337//222 338//223 
f 348//221 339//221 337//222 
f 347//219 335//219 339//221 
f 350//220 336//225 335//219 
o mesh67
f 346//226 356//226 89//227 
f 345//228 358//228 356//226 
f 344//229 357//229 358//228 
f 343//230 355//230 357//229 
f 341//231 353//231 355//230 
f 340//232 351//232 353//231 
f 336//233 350//233 351//232 
f 351//232 340//232 336//233 
f 353//231 341//231 340//232 
f 355//230 343//230 341//231 
f 357//229 344//229 343//230 
f 358//228 345//228 344//229 
f 356//226 346//226 345//228 
f 89//227 88//234 346//226 
g Part 7
v 0.00409532 0.035 0.002 
v 0.00409532 0.035 0 
v 0.00588146 0.035 0 
v 0.00588146 0.035 0.002 
v 0.00588146 0.0503688 0 
v 0.00588146 0.0503688 0.002 
v 0.00409532 0.0503688 0 
v 0.00409532 0.0503688 0.002 
v 0.00409532 0.0438298 0 
v 0.00409532 0.0438298 0.002 
v -0.00400114 0.0438298 0 
v -0.00400114 0.0438298 0.002 
v -0.00400114 0.0503688 0 
v -0.00400114 0.0503688 0.002 
v -0.00578727 0.0503688 0 
v -0.00578727 0.0503688 0.002 
v -0.00578727 0.035 0 
v -0.00578727 0.035 0.002 
v -0.00400114 0.035 0 
v -0.00400114 0.035 0.002 
v 0.00409532 0.042232 0.002 
v -0.00400114 0.042232 0.002 
v 0.00409532 0.042232 0 
v -0.00400114 0.042232 0 
vn 0 -1 0 
vn 1 0 0 
vn 0 1 0 
vn -1 0 0 
vn 1 0 0 
vn 0 1 0 
vn -1 0 0 
vn 0 -1 0 
vn 0 0 1 
vn 0 0 -1 
vn 1 0 0 
vn 0 -1 0 
vn -1 0 0 
usemtl 0.498039_0.498039_0.498039_0.000000_0.000000
o mesh68
f 359//235 360//235 361//235 
f 361//235 362//235 359//235 
o mesh69
f 362//236 361//236 363//236 
f 363//236 364//236 362//236 
o mesh70
f 364//237 363//237 365//237 
f 365//237 366//237 364//237 
o mesh71
f 366//238 365//238 367//238 
f 367//238 368//238 366//238 
o mesh72
f 368//237 367//237 369//237 
f 369//237 370//237 368//237 
o mesh73
f 370//239 369//239 371//239 
f 371//239 372//239 370//239 
o mesh74
f 372//240 371//240 373//240 
f 373//240 374//240 372//240 
o mesh75
f 374//241 373//241 375//241 
f 375//241 376//241 374//241 
o mesh76
f 376//242 375//242 377//242 
f 377//242 378//242 376//242 
o mesh77
f 362//243 368//243 379//243 
f 380//243 379//243 368//243 
f 368//243 370//243 380//243 
f 376//243 378//243 380//243 
f 374//243 376//243 370//243 
f 380//243 370//243 376//243 
f 379//243 359//243 362//243 
f 364//243 366//243 368//243 
f 368//243 362//243 364//243 
f 370//243 372//243 374//243 
o mesh78
f 363//244 381//244 367//244 
f 369//244 367//244 381//244 
f 381//244 382//244 369//244 
f 373//244 371//244 369//244 
f 375//244 373//244 382//244 
f 369//244 382//244 373//244 
f 367//244 365//244 363//244 
f 361//244 360//244 381//244 
f 381//244 363//244 361//244 
f 382//244 377//244 375//244 
o mesh79
f 378//245 377//245 382//245 
f 382//245 380//245 378//245 
o mesh80
f 380//246 382//246 381//246 
f 381//246 379//246 380//246 
o mesh81
f 379//247 381//247 360//247 
f 360//247 359//247 379//247 
g Part 8
v 0.01569 0.0503688 0.002 
v 0.01569 0.0503688 0 
v 0.01569 0.035 0 
v 0.01569 0.035 0.002 
v 0.0242574 0.035 0 
v 0.0242574 0.035 0.002 
v 0.0242574 0.0366179 0 
v 0.0242574 0.0366179 0.002 
v 0.0174762 0.0366179 0.002 
v 0.0174762 0.0503688 0.002 
v 0.0174762 0.0366179 0 
v 0.0174762 0.0503688 0 
vn -1 0 0 
vn 0 -1 0 
vn 1 0 0 
vn 0 0 1 
vn 0 0 -1 
vn 0 1 0 
vn 1 0 0 
usemtl 0.980392_0.713725_0.003922_0.000000_0.000000
o mesh82
f 383//248 384//248 385//248 
f 385//248 386//248 383//248 
o mesh83
f 386//249 385//249 387//249 
f 387//249 388//249 386//249 
o mesh84
f 388//250 387//250 389//250 
f 389//250 390//250 388//250 
o mesh85
f 383//251 386//251 391//251 
f 388//251 390//251 391//251 
f 391//251 386//251 388//251 
f 391//251 392//251 383//251 
o mesh86
f 387//252 385//252 393//252 
f 384//252 394//252 393//252 
f 393//252 385//252 384//252 
f 393//252 389//252 387//252 
o mesh87
f 390//253 389//253 393//253 
f 393//253 391//253 390//253 
o mesh88
f 391//254 393//254 394//254 
f 394//254 392//254 391//254 
o mesh89
f 392//253 394//253 384//253 
f 384//253 383//253 392//253 
g Part 9
v 0.0268643 0.0503688 0.002 
v 0.0268643 0.0503688 0 
v 0.0268643 0.035 0 
v 0.0268643 0.035 0.002 
v 0.0286504 0.035 0 
v 0.0286504 0.035 0.002 
v 0.0286504 0.0503688 0 
v 0.0286504 0.0503688 0.002 
vn -1 0 0 
vn 0 -1 0 
vn 1 0 0 
vn 0 1 0 
vn 0 0 1 
vn 0 0 -1 
usemtl 0.615686_0.811765_0.929412_0.000000_0.000000
o mesh90
f 395//255 396//255 397//255 
f 397//255 398//255 395//255 
o mesh91
f 398//256 397//256 399//256 
f 399//256 400//256 398//256 
o mesh92
f 400//257 399//257 401//257 
f 401//257 402//257 400//257 
o mesh93
f 402//258 401//258 396//258 
f 396//258 395//258 402//258 
o mesh94
f 402//259 395//259 398//259 
f 398//259 400//259 402//259 
o mesh95
f 399//260 397//260 396//260 
f 396//260 401//260 399//260 
g Part 10
v 0.0428319 0.035 0.002 
v 0.0428319 0.035 0 
v 0.0448703 0.035 0 
v 0.0448703 0.035 0.002 
v 0.0448703 0.0503688 0 
v 0.0448703 0.0503688 0.002 
v 0.0431985 0.0503688 0 
v 0.0431985 0.0503688 0.002 
v 0.0431985 0.0415492 0 
v 0.0431985 0.0415492 0.002 
v 0.0432019 0.040667 0.002 
v 0.0432019 0.040667 0 
v 0.0432523 0.0393459 0 
v 0.0432523 0.0393459 0.002 
v 0.0433457 0.0375228 0 
v 0.0433457 0.0375228 0.002 
v 0.0432624 0.0375228 0 
v 0.0432624 0.0375228 0.002 
v 0.0348834 0.0503688 0 
v 0.0348834 0.0503688 0.002 
v 0.0328652 0.0503688 0 
v 0.0328652 0.0503688 0.002 
v 0.0328652 0.035 0 
v 0.0328652 0.035 0.002 
v 0.0345168 0.035 0 
v 0.0345168 0.035 0.002 
v 0.0345168 0.0437356 0 
v 0.0345168 0.0437356 0.002 
v 0.0344327 0.0478965 0.002 
v 0.0343486 0.0478965 0.002 
v 0.0344747 0.045721 0.002 
v 0.0344327 0.0478965 0 
v 0.0343486 0.0478965 0 
v 0.0344747 0.045721 0 
vn 0 -1 0 
vn 1 0 0 
vn 0 1 0 
vn -1 0 0 
vn -0.999702 -0.0244202 0 
vn -0.998848 -0.0479796 0 
vn -0.999537 0.0304427 0 
vn -0.998405 -0.0564541 0 
vn -0.998971 -0.0453508 0 
vn 0 1 0 
vn 0.837576 0.546321 0 
vn -1 0 0 
vn 0 -1 0 
vn 1 0 0 
vn 0 0 1 
vn 0 0 -1 
vn 0.999184 0.0403874 0 
vn 0.997268 0.0738717 0 
vn 1 0 0 
vn 0 -1 0 
vn -0.837954 -0.545741 0 
usemtl 0.647059_0.647059_0.647059_0.000000_0.000000
o mesh96
f 403//261 404//261 405//261 
f 405//261 406//261 403//261 
o mesh97
f 406//262 405//262 407//262 
f 407//262 408//262 406//262 
o mesh98
f 408//263 407//263 409//263 
f 409//263 410//263 408//263 
o mesh99
f 410//264 409//264 411//264 
f 411//264 412//264 410//264 
o mesh100
f 413//265 414//265 415//266 
f 412//267 411//267 414//265 
f 414//265 413//265 412//267 
f 415//266 416//266 413//265 
o mesh101
f 417//268 418//268 416//269 
f 416//269 415//269 417//268 
o mesh102
f 418//270 417//270 419//270 
f 419//270 420//270 418//270 
o mesh103
f 420//271 419//271 421//271 
f 421//271 422//271 420//271 
o mesh104
f 422//270 421//270 423//270 
f 423//270 424//270 422//270 
o mesh105
f 424//272 423//272 425//272 
f 425//272 426//272 424//272 
o mesh106
f 426//273 425//273 427//273 
f 427//273 428//273 426//273 
o mesh107
f 428//274 427//274 429//274 
f 429//274 430//274 428//274 
o mesh108
f 431//275 403//275 420//275 
f 403//275 406//275 418//275 
f 406//275 412//275 413//275 
f 418//275 420//275 403//275 
f 422//275 424//275 432//275 
f 413//275 416//275 406//275 
f 408//275 410//275 412//275 
f 432//275 431//275 422//275 
f 412//275 406//275 408//275 
f 424//275 430//275 433//275 
f 426//275 428//275 430//275 
f 416//275 418//275 406//275 
f 430//275 424//275 426//275 
f 433//275 432//275 424//275 
f 420//275 422//275 431//275 
o mesh109
f 405//276 415//276 414//276 
f 404//276 419//276 417//276 
f 434//276 421//276 419//276 
f 407//276 405//276 411//276 
f 405//276 417//276 415//276 
f 421//276 434//276 435//276 
f 419//276 404//276 434//276 
f 425//276 423//276 429//276 
f 423//276 435//276 436//276 
f 414//276 411//276 405//276 
f 417//276 405//276 404//276 
f 436//276 429//276 423//276 
f 435//276 423//276 421//276 
f 411//276 409//276 407//276 
f 429//276 427//276 425//276 
o mesh110
f 433//277 436//277 435//278 
f 430//279 429//279 436//277 
f 436//277 433//277 430//279 
f 435//278 432//278 433//277 
o mesh111
f 432//280 435//280 434//280 
f 434//280 431//280 432//280 
o mesh112
f 431//281 434//281 404//281 
f 404//281 403//281 431//281 
g Part 11
v 0.0490951 0.035 0.002 
v 0.0490951 0.035 0 
v 0.0576625 0.035 0 
v 0.0576625 0.035 0.002 
v 0.0576625 0.0365978 0 
v 0.0576625 0.0365978 0.002 
v 0.0508812 0.0365978 0 
v 0.0508812 0.0365978 0.002 
v 0.0508812 0.0422522 0 
v 0.0508812 0.0422522 0.002 
v 0.0572521 0.0422522 0 
v 0.0572521 0.0422522 0.002 
v 0.0572521 0.0438298 0 
v 0.0572521 0.0438298 0.002 
v 0.0508812 0.0438298 0 
v 0.0508812 0.0438298 0.002 
v 0.0508812 0.0487811 0 
v 0.0508812 0.0487811 0.002 
v 0.0576625 0.0487811 0 
v 0.0576625 0.0487811 0.002 
v 0.0576625 0.0503688 0.002 
v 0.0490951 0.0503688 0.002 
v 0.0490951 0.0503688 0 
v 0.0576625 0.0503688 0 
vn 0 -1 0 
vn 1 0 0 
vn 0 1 0 
vn 0 -1 0 
vn 1 0 0 
vn 0 1 0 
vn 0 -1 0 
vn 0 0 1 
vn 0 0 -1 
vn 1 0 0 
vn 0 1 0 
vn -1 0 0 
usemtl 0.231373_0.380392_0.705882_0.000000_0.000000
o mesh113
f 437//282 438//282 439//282 
f 439//282 440//282 437//282 
o mesh114
f 440//283 439//283 441//283 
f 441//283 442//283 440//283 
o mesh115
f 442//284 441//284 443//284 
f 443//284 444//284 442//284 
o mesh116
f 444//283 443//283 445//283 
f 445//283 446//283 444//283 
o mesh117
f 446//285 445//285 447//285 
f 447//285 448//285 446//285 
o mesh118
f 448//286 447//286 449//286 
f 449//286 450//286 448//286 
o mesh119
f 450//287 449//287 451//287 
f 451//287 452//287 450//287 
o mesh120
f 452//286 451//286 453//286 
f 453//286 454//286 452//286 
o mesh121
f 454//288 453//288 455//288 
f 455//288 456//288 454//288 
o mesh122
f 457//289 458//289 454//289 
f 458//289 446//289 452//289 
f 452//289 454//289 458//289 
f 450//289 452//289 446//289 
f 446//289 448//289 450//289 
f 437//289 444//289 446//289 
f 446//289 458//289 437//289 
f 440//289 442//289 444//289 
f 444//289 437//289 440//289 
f 454//289 456//289 457//289 
o mesh123
f 439//290 438//290 443//290 
f 438//290 451//290 445//290 
f 445//290 443//290 438//290 
f 447//290 445//290 451//290 
f 451//290 449//290 447//290 
f 459//290 453//290 451//290 
f 451//290 438//290 459//290 
f 460//290 455//290 453//290 
f 453//290 459//290 460//290 
f 443//290 441//290 439//290 
o mesh124
f 456//291 455//291 460//291 
f 460//291 457//291 456//291 
o mesh125
f 457//292 460//292 459//292 
f 459//292 458//292 457//292 
o mesh126
f 458//293 459//293 438//293 
f 438//293 437//293 458//293 
